<svg xmlns="http://www.w3.org/2000/svg" viewBox="0 -106 512 512"><path fill="#95ccc2" d="M504.512 81.602L203.305 67.55c-.75-.121-1.496-.25-2.25-.352V41.926c0-6.973-5.653-12.625-12.625-12.625-6.973 0-12.625 5.652-12.625 12.625v25.273c-2.575.344-5.11.809-7.614 1.356l-73.57-45.348c-7.484-4.754-17.398-2.543-22.152 4.938l-41.696 65.64c-4.753 7.485-2.543 17.399 4.942 22.153l58.332 38.917a95.667 95.667 0 0 0-.219 6.106c0 47.969 35.7 87.59 81.977 93.762V280c0 6.973 5.652 12.625 12.625 12.625 6.972 0 12.625-5.652 12.625-12.625v-25.277c42.144-5.621 75.511-38.989 81.132-81.137h25.278c6.973 0 12.625-5.652 12.625-12.625s-5.652-12.625-12.625-12.625h-25.277a93.836 93.836 0 0 0-5.282-20.86l227.606-10.617zm-401.633 38.976l-10.516-6.68c-7.48-4.753-9.691-14.668-4.941-22.148l7.277-11.453c4.754-7.484 14.668-9.695 22.153-4.942l11.777 7.48a15.934 15.934 0 0 0 3.93 1.794 94.959 94.959 0 0 0-29.68 35.95zm0 0"/><path fill="#6fada1" d="M123.793 160.96v-.062c.004-3.824-1.836-7.418-5.02-9.539L65.68 115.937c-7.485-4.753-9.696-14.667-4.942-22.152l41.696-65.637c.02-.03.043-.058.062-.085l-7.875-4.856c-7.484-4.754-17.398-2.543-22.152 4.941L30.773 93.785c-4.753 7.485-2.543 17.399 4.938 22.153l58.316 38.906c.012.008.016.02.016.031a95.279 95.279 0 0 0-.219 6.09c0 47.953 35.684 87.57 81.946 93.754.02.004.03.02.03.035v24.789c0 6.973 5.454 12.969 12.427 13.078 7.062.11 12.824-5.582 12.824-12.621v-35.527c0-.016-.004-.028-.016-.032-1.347-.64-77.242-36.75-77.242-83.48zm0 0"/><path fill="#ffcd6b" d="M235.246 159.613c0 24.028-19.476 43.504-43.504 43.504-24.027 0-43.504-19.476-43.504-43.504 0-24.023 19.477-43.504 43.504-43.504 24.028 0 43.504 19.48 43.504 43.504zm0 0"/><path fill="#ffb64c" d="M178.207 159.613c0-18.758 11.875-34.746 28.52-40.851a43.4 43.4 0 0 0-14.985-2.653c-24.027 0-43.504 19.477-43.504 43.504 0 24.028 19.477 43.504 43.504 43.504a43.49 43.49 0 0 0 14.985-2.648c-16.645-6.11-28.52-22.094-28.52-40.856zm0 0"/><path fill="#e63950" d="M35.71 115.938l-20.784-13.204c-7.48-4.754-9.692-14.671-4.942-22.152l41.7-65.64c4.754-7.481 14.668-9.692 22.152-4.938L94.62 23.207c-7.484-4.754-17.398-2.543-22.152 4.938l-41.696 65.64c-4.753 7.485-2.543 17.399 4.938 22.153zm0 0M504.508 81.602v35.257l-157.176 7.332V74.54l.012-.27zm0 0"/><path d="M242.734 159.613c0-28.117-22.875-50.992-50.992-50.992-21.57 0-40.039 13.465-47.48 32.426a7.554 7.554 0 0 0-.38.96 50.703 50.703 0 0 0-3.136 17.606c0 6.285 1.152 12.301 3.238 17.864.114.375.258.73.426 1.078 7.535 18.765 25.906 32.054 47.332 32.054 21.254 0 39.504-13.074 47.153-31.597.347-.61.609-1.274.773-1.973a50.756 50.756 0 0 0 3.066-17.426zm-78.515 23.192h20.031v12.03c-7.965-1.69-14.957-6.023-20.031-12.03zm14.765-14.985h-22.3a35.966 35.966 0 0 1-.954-8.207c0-2.715.313-5.36.883-7.902h27.637v16.11zm5.266-31.093h-20.293c5.09-6.168 12.195-10.614 20.293-12.336zm14.984 14.984h27.633c.574 2.543.887 5.187.887 7.902 0 2.825-.336 5.57-.953 8.207h-27.567zm0-14.984V124.39c8.098 1.722 15.2 6.168 20.293 12.336zm0 58.109v-12.031h20.032c-5.075 6.007-12.07 10.34-20.032 12.03zm0 0"/><path d="M504.86 74.121L208.542 60.297V41.926c0-11.09-9.023-20.117-20.117-20.117-11.09 0-20.113 9.027-20.113 20.117v17.902L77.852 3.68C72.543.309 66.238-.797 60.105.574A23.39 23.39 0 0 0 45.36 10.926L33.145 30.16a7.49 7.49 0 1 0 12.644 8.031l12.219-19.23a8.5 8.5 0 0 1 5.36-3.766 8.499 8.499 0 0 1 6.448 1.13l2.278 1.445c-.035.027-.067.058-.102.082-.504.375-.992.765-1.469 1.183-.074.063-.144.13-.214.192-.473.421-.93.863-1.371 1.328-.063.066-.122.133-.18.199-.445.48-.88.98-1.285 1.504-.04.047-.075.097-.11.144a22.832 22.832 0 0 0-1.215 1.73L24.45 89.77c-.383.605-.73 1.218-1.054 1.843-.024.051-.051.098-.075.149a21.99 21.99 0 0 0-.82 1.808c-.031.082-.066.16-.098.243a23.347 23.347 0 0 0-.62 1.8c-.028.098-.06.192-.087.29-.172.6-.32 1.206-.441 1.812-.008.047-.024.094-.031.14l-2.278-1.445c-3.98-2.531-5.164-7.828-2.633-11.812L29.2 64.308a7.486 7.486 0 0 0-2.304-10.335 7.485 7.485 0 0 0-10.34 2.304L3.665 76.562c-6.962 10.958-3.708 25.532 7.245 32.493l75.457 49.68a72.379 72.379 0 0 0-.031 2.226c0 48.742 34.805 90.664 81.977 100.105V280c0 11.09 9.023 20.113 20.113 20.113 11.094 0 20.117-9.023 20.117-20.113v-18.934c16.957-3.386 32.762-11.043 46.039-22.347a7.498 7.498 0 0 0 .848-10.563c-.067-.074-.14-.14-.207-.215a7.481 7.481 0 0 0-10.356-.629c-12.508 10.653-27.64 17.489-43.816 19.836-.328.051-.656.106-.988.153a7.486 7.486 0 0 0-6.5 7.422V280a5.142 5.142 0 0 1-5.137 5.133 5.141 5.141 0 0 1-5.133-5.133v-25.277a7.49 7.49 0 0 0-6.5-7.426c-43.027-5.738-75.477-42.856-75.477-86.336 0-1.676.067-3.465.204-5.629a7.483 7.483 0 0 0-3.317-6.707l-58.332-38.918-.14-.094c-3.985-2.527-5.165-7.828-2.637-11.812l41.699-65.637a8.527 8.527 0 0 1 5.36-3.758c.003 0 .007-.004.011-.004.262-.058.531-.101.797-.136.031-.004.059-.004.09-.008.242-.028.488-.047.73-.055.059-.004.114.004.172.004a7.27 7.27 0 0 1 .652.012c.098.008.192.023.29.035.18.016.355.031.535.062.125.02.25.055.379.082.144.032.293.055.437.094.149.04.293.094.438.145.125.039.246.07.367.117.16.062.32.137.48.21.102.044.203.083.305.134.16.082.316.175.473.27.097.054.199.105.296.163.028.02.055.04.086.055l73.57 45.348a7.467 7.467 0 0 0 5.524.941 87.207 87.207 0 0 1 7.008-1.246 7.49 7.49 0 0 0 6.5-7.426V41.93a5.139 5.139 0 0 1 5.133-5.133 5.14 5.14 0 0 1 5.137 5.133v25.273a7.49 7.49 0 0 0 6.496 7.426c.48.062.953.14 1.43.219l.644.105c.273.043.547.07.82.082l136.883 6.387v35.621l-63.281 2.953a7.488 7.488 0 0 0-6.656 10.137 86.579 86.579 0 0 1 4.863 19.195 7.49 7.49 0 0 0 7.425 6.5h25.278a5.142 5.142 0 0 1 5.133 5.137 5.141 5.141 0 0 1-5.133 5.133h-25.277a7.493 7.493 0 0 0-7.426 6.5c-1.578 11.84-5.512 23.035-11.684 33.273a7.485 7.485 0 0 0 2.297 10.113c.086.055.164.118.254.168a7.488 7.488 0 0 0 10.281-2.547c6.102-10.117 10.332-21.03 12.625-32.527h18.93c11.09 0 20.113-9.023 20.113-20.113 0-11.094-9.023-20.117-20.113-20.117h-18.938c-.43-2.125-.925-4.243-1.492-6.344l217.824-10.16a7.491 7.491 0 0 0 7.141-7.485V81.605c0-4.003-3.145-7.3-7.14-7.484zm-7.84 14.633v20.953l-142.2 6.637V82.117zm0 0"/><path d="M134.746 77.46a8.595 8.595 0 0 1-2.101-.948l-11.778-7.48c-10.953-6.962-25.531-3.708-32.492 7.245L81.102 87.73c-6.961 10.957-3.711 25.532 7.246 32.493l10.515 6.68a7.486 7.486 0 0 0 10.785-3.122 87.674 87.674 0 0 1 27.336-33.113 7.48 7.48 0 0 0 2.957-7.293 7.488 7.488 0 0 0-5.195-5.914zm-34.71 32.435l-3.653-2.32c-3.985-2.528-5.164-7.829-2.637-11.81l7.277-11.453a8.553 8.553 0 0 1 7.239-3.968c1.566 0 3.152.43 4.574 1.332l6.512 4.136a102.896 102.896 0 0 0-19.313 24.083zm0 0"/>
</svg>
